<svg xmlns="http://www.w3.org/2000/svg" xmlns:xlink="http://www.w3.org/1999/xlink" width="150" height="108" viewBox="0 0 150 108">
  <defs>
    <clipPath id="clip-path">
      <rect id="Rectangle_58" data-name="Rectangle 58" width="73.787" height="56" transform="translate(0 0)" fill="none"/>
    </clipPath>
    <clipPath id="clip-_0101_avermedia">
      <rect width="150" height="108"/>
    </clipPath>
  </defs>
  <g id="_0101_avermedia" data-name="0101_avermedia" clip-path="url(#clip-_0101_avermedia)">
    <rect width="150" height="108" fill="#0a0000"/>
    <g id="Group_72" data-name="Group 72" transform="translate(38 10)">
      <g id="Group_71" data-name="Group 71" clip-path="url(#clip-path)">
        <path id="Path_84" data-name="Path 84" d="M18.017,20.076c-.328,2.628,2.853,9.073,8.627,13.784-1.873-3.008-3.463-8.127-3.178-11.235.487-5.308,3.4-10.5,6.392-14.791A180.065,180.065,0,0,1,59.543,4.008,108.114,108.114,0,0,1,73.787,0C54.553.855,40.757,3.455,31.072,6.145,31.7,5.3,32.316,4.484,32.9,3.731a40.282,40.282,0,0,0-4.116,3.075,106.216,106.216,0,0,0-13.521,5.021c3.2-1.042,7.025-2.193,11.577-3.294-3.93,3.678-7.386,8.048-8.824,11.543M55.771,35.925c.328-2.628-2.854-9.075-8.629-13.782,1.874,3.008,3.463,8.124,3.178,11.232-.489,5.31-3.4,10.5-6.394,14.792a180.256,180.256,0,0,1-29.683,3.828A108.193,108.193,0,0,1,0,56c19.231-.854,33.026-3.453,42.711-6.143-.626.849-1.244,1.659-1.828,2.411A40.207,40.207,0,0,0,45,49.2a106.008,106.008,0,0,0,13.526-5.024c-3.2,1.042-7.027,2.195-11.581,3.3,3.932-3.679,7.39-8.05,8.828-11.544M26.816,23.165c1.809-3.042,5.688-6.909,8.67-8.229,6.851-3.032,15.705-2.359,21.969-1.7-6.564-3.016-16.5-4.9-22.366-4.055-2.566,1.047-6.859,6.883-8.273,13.98M38.7,46.817c2.561-1.048,6.856-6.886,8.27-13.982-1.809,3.044-5.687,6.912-8.669,8.23-6.85,3.031-15.707,2.356-21.967,1.7,6.558,3.016,16.5,4.9,22.366,4.055m-2.773-8.122c-3.684.034-9.152-1.216-11.847-3.006-6.2-4.114-10.005-11.724-12.535-17.2.526,6.9,3.775,16.006,7.481,20.4,2.238,1.581,9.716,2.191,16.9-.2m1.935-21.39c3.685-.035,9.151,1.219,11.849,3.008,6.191,4.11,10.005,11.721,12.532,17.194-.525-6.9-3.774-16-7.483-20.4-2.235-1.584-9.713-2.193-16.9.194" fill="#e30012"/>
      </g>
    </g>
  </g>
</svg>
