<svg xmlns="http://www.w3.org/2000/svg" xmlns:xlink="http://www.w3.org/1999/xlink" width="150" height="108" viewBox="0 0 150 108">
  <defs>
    <clipPath id="clip-path">
      <path id="Path_119" data-name="Path 119" d="M1.032,23.519C.777,23.375,0,23.694,0,23.98l0,5.6c0,.16.02.47,0,1.011L44.484,55.62a2.334,2.334,0,0,0,.9.244V48.88a.636.636,0,0,0-.533-.622,2.976,2.976,0,0,1-.952-.323Z" transform="translate(38 10)" fill="#606060"/>
    </clipPath>
    <clipPath id="clip-path-2">
      <path id="Path_120" data-name="Path 120" d="M46.727,47.987a.826.826,0,0,0-.488.772V56a3.094,3.094,0,0,0,.769-.3L72.489,41.014c.387-.224.563-.471.566-.618V28.032a.26.26,0,0,0-.42-.2l-25.1,19.694a3.407,3.407,0,0,1-.811.465" transform="translate(38.946 10)" fill="#313131"/>
    </clipPath>
    <clipPath id="clip-_0102_nexus">
      <rect width="150" height="108"/>
    </clipPath>
  </defs>
  <g id="_0102_nexus" data-name="0102_nexus" clip-path="url(#clip-_0102_nexus)">
    <rect width="150" height="108" fill="#000826"/>
    <path id="Path_117" data-name="Path 117" d="M725.927,442.813l-21.783,16.256,38.624,23.083,23.929-18.4Z" transform="translate(-660 -429)" fill="red"/>
    <path id="Path_110" data-name="Path 110" d="M72.884,25.006,29.436.23A2.029,2.029,0,0,0,28.441,0a2.676,2.676,0,0,0-1.583.493L1.485,20.179a.877.877,0,0,0-.416.68.653.653,0,0,0,.375.472L44.892,46.109a2.613,2.613,0,0,0,2.578-.264L72.842,26.16a.925.925,0,0,0,.409-.625v-.079a.672.672,0,0,0-.367-.45M52.5,18.19l5.013,2.858a.484.484,0,0,1,.058.8l-5.315,4.122a.5.5,0,0,1-.55.039L46.7,23.153a.482.482,0,0,1-.057-.8l5.313-4.122a.5.5,0,0,1,.55-.038m-1.691,8.635a.48.48,0,0,1-.187.417l-5.315,4.123a.487.487,0,0,1-.3.1.493.493,0,0,1-.246-.066l-5.012-2.859a.482.482,0,0,1-.058-.8L45,23.618a.5.5,0,0,1,.55-.038l5.013,2.86a.482.482,0,0,1,.245.385m-35.989-5.9a4.117,4.117,0,0,1-2.469.792,3.384,3.384,0,0,1-1.662-.4c-1.154-.659-1.175-1.9-.046-2.778a4.126,4.126,0,0,1,2.471-.792,3.374,3.374,0,0,1,1.662.4c1.154.657,1.175,1.9.045,2.776m6.184,3.526a4.118,4.118,0,0,1-2.471.792,3.387,3.387,0,0,1-1.662-.4c-1.154-.658-1.174-1.9-.045-2.777a4.12,4.12,0,0,1,2.471-.792,3.384,3.384,0,0,1,1.662.4c1.154.658,1.174,1.9.045,2.777m6.184,3.527a4.124,4.124,0,0,1-2.471.792,3.374,3.374,0,0,1-1.662-.4c-1.154-.658-1.175-1.9-.045-2.777a4.118,4.118,0,0,1,2.471-.792,3.4,3.4,0,0,1,1.662.4c1.153.659,1.174,1.9.045,2.778M33.374,31.5a4.117,4.117,0,0,1-2.469.792,3.388,3.388,0,0,1-1.663-.4c-1.153-.659-1.174-1.9-.045-2.778a4.127,4.127,0,0,1,2.472-.792,3.383,3.383,0,0,1,1.661.4c1.154.658,1.175,1.9.045,2.777m6.184,3.526a4.119,4.119,0,0,1-2.469.792,3.374,3.374,0,0,1-1.663-.4c-1.153-.658-1.174-1.9-.045-2.777a4.118,4.118,0,0,1,2.471-.792,3.4,3.4,0,0,1,1.662.4c1.154.658,1.175,1.9.045,2.777m6.184,3.527a4.126,4.126,0,0,1-2.471.792,3.384,3.384,0,0,1-1.662-.4c-1.154-.658-1.175-1.9-.045-2.777a4.118,4.118,0,0,1,2.471-.792,3.4,3.4,0,0,1,1.662.4c1.154.659,1.174,1.9.045,2.778M57.915,31.4,52.6,35.52a.5.5,0,0,1-.3.1.492.492,0,0,1-.246-.065L47.037,32.7a.485.485,0,0,1-.244-.386.48.48,0,0,1,.187-.417l5.313-4.123a.5.5,0,0,1,.55-.039l5.013,2.859a.484.484,0,0,1,.058.8M64.865,26l-5.313,4.123a.5.5,0,0,1-.3.1A.5.5,0,0,1,59,30.167l-5.013-2.859a.484.484,0,0,1-.058-.8l5.313-4.123a.5.5,0,0,1,.55-.039l5.013,2.86a.483.483,0,0,1,.058.8" transform="translate(38.022 10)" fill="#686868"/>
    <path id="Path_111" data-name="Path 111" d="M28.35,4.621l21.726,12.39L37.091,27.078,15.365,14.688Z" transform="translate(38.314 10)" fill="#fff"/>
    <path id="Path_112" data-name="Path 112" d="M46.727,47.987a.826.826,0,0,0-.488.772V56a3.094,3.094,0,0,0,.769-.3L72.489,41.014c.387-.224.563-.471.566-.618V28.032a.26.26,0,0,0-.42-.2l-25.1,19.694a3.407,3.407,0,0,1-.811.465" transform="translate(38.945 10)" fill="#4b4b4b"/>
    <path id="Path_113" data-name="Path 113" d="M1.032,23.519C.777,23.375,0,23.694,0,23.98l0,5.6c0,.16.02.47,0,1.011L44.484,55.62a2.334,2.334,0,0,0,.9.244V48.88a.636.636,0,0,0-.533-.622,2.976,2.976,0,0,1-.952-.323Z" transform="translate(38 10)" fill="#717171"/>
    <rect id="Rectangle_64" data-name="Rectangle 64" width="74" height="56" transform="translate(38 10)" fill="none"/>
    <g id="Mask_Group_2" data-name="Mask Group 2" clip-path="url(#clip-path)">
      <path id="Path_118" data-name="Path 118" d="M1578,469.635l47.942,27.012" transform="translate(-1541.845 -434.04)" fill="none" stroke="red" stroke-width="2"/>
    </g>
    <g id="Mask_Group_3" data-name="Mask Group 3" clip-path="url(#clip-path-2)">
      <line id="Line_27" data-name="Line 27" y1="25" x2="33" transform="translate(84.5 37.5)" fill="none" stroke="red" stroke-width="2"/>
    </g>
  </g>
</svg>
