<svg xmlns="http://www.w3.org/2000/svg" xmlns:xlink="http://www.w3.org/1999/xlink" width="150" height="108" viewBox="0 0 150 108">
  <defs>
    <clipPath id="clip-_0103_microphone">
      <rect width="150" height="108"/>
    </clipPath>
  </defs>
  <g id="_0103_microphone" data-name="0103_microphone" clip-path="url(#clip-_0103_microphone)">
    <rect width="150" height="108" fill="#000826"/>
    <path id="Path_85" data-name="Path 85" d="M16.3,55.065l-.721-.077a10.959,10.959,0,0,1-1.506-.286C7.318,52.95,1.8,46.176,1.782,39.6a8.619,8.619,0,0,1,.712-3.63l.155-.34a6.389,6.389,0,0,1,2.511-2.61,7.683,7.683,0,0,1,3.876-.976,11.966,11.966,0,0,1,2.935.376c6.657,1.728,12.3,8.641,12.318,15.1A7.337,7.337,0,0,1,21.3,53.883l-.3.164a7.556,7.556,0,0,1-3.987,1.032s-.49,0-.709-.014" transform="translate(48 10)" fill="#222"/>
    <path id="Path_86" data-name="Path 86" d="M9.015,33.325a10.549,10.549,0,0,1,2.621.343c6.041,1.6,11.356,8.215,11.37,14.154a6.319,6.319,0,0,1-2.381,5.38l-.273.158-.03.016-.03.018a6.239,6.239,0,0,1-3.324.857H16.91c-.182,0-.362,0-.543-.011l-.7-.074a9.563,9.563,0,0,1-1.319-.259C8.207,52.283,3.009,45.8,2.994,39.753a7.676,7.676,0,0,1,.6-3.163l.131-.293a5.168,5.168,0,0,1,2.029-2.146,6.359,6.359,0,0,1,3.262-.827m0-2.037a8.307,8.307,0,0,0-4.256,1.1A7.216,7.216,0,0,0,1.931,35.4l-.154.345A9.727,9.727,0,0,0,1,39.757c.018,7.021,5.776,14.251,12.843,16.122a11.573,11.573,0,0,0,1.612.313l.766.081c.23.01.458.015.688.015h.058a8.207,8.207,0,0,0,4.362-1.155l.353-.2A8.273,8.273,0,0,0,25,47.817c-.017-6.9-5.907-14.277-12.863-16.121a12.541,12.541,0,0,0-3.125-.408" transform="translate(48 9.712)" fill="#b40000"/>
    <path id="Path_87" data-name="Path 87" d="M25.992,24.29a11.259,11.259,0,0,0-2.829-.379,6.971,6.971,0,0,0-3.333.707c-.784.385-3.7,1.963-9.365,4.762a14.994,14.994,0,0,1,2.195.369c7.93,2.059,14.391,10.027,14.409,17.766a11.863,11.863,0,0,1-.628,3.939l8.152-5.717a7.545,7.545,0,0,0,3.041-6.474c0-6.428-5.332-13.284-11.642-14.973" transform="translate(48 10)" fill="#717071"/>
    <path id="Path_88" data-name="Path 88" d="M44.056,14.867a8.172,8.172,0,0,0-6.027.531l-9.416,4.744a13.854,13.854,0,0,1,1.472.289c7.114,1.905,12.891,9.346,12.891,16.592a10.848,10.848,0,0,1-.467,3.137l9.33-6.537a6.5,6.5,0,0,0,2.729-5.633c0-5.631-4.813-11.639-10.512-13.123" transform="translate(48 10)" fill="#717071"/>
    <path id="Path_89" data-name="Path 89" d="M39.634,39.263a11.7,11.7,0,0,1-.357,2.869,7.882,7.882,0,0,0,1.7-5.109c0-6.291-5.217-13-11.4-14.656a9.9,9.9,0,0,0-4.166-.225c.36.064.719.119,1.08.213,7.25,1.941,13.139,9.525,13.139,16.908" transform="translate(48 10)" fill="#fff"/>
    <path id="Path_91" data-name="Path 91" d="M46.829,28.144l2.408.008c0-1.455.024-3.209.074-4.451.161-3.905,1.618-4.006,1.618-5.069V10.361c0,3-1.981,4.047-3.278,5.183-.232.2-.451.409-.683.6a10.164,10.164,0,0,0-3.016,3.568c-.252,1.047-.338,6.508-.363,10.327a5.012,5.012,0,0,1,1-1.067,3.758,3.758,0,0,1,2.238-.826" transform="translate(48 10)" fill="#b3b3b3"/>
    <g id="Group_73" data-name="Group 73" transform="translate(-203.212 -562.144)">
      <path id="Path_90" data-name="Path 90" d="M53.672,32.361a6.808,6.808,0,0,1-.1,3.048,4.343,4.343,0,0,1-1.28,2.308,1.6,1.6,0,0,1-.99.4v.015a1.459,1.459,0,0,1-1.075-.477,3.352,3.352,0,0,1-.819-1.739c-.427-1.97.205-4.356,1.382-5.341a1.662,1.662,0,0,1,1.024-.415c.819-.016,1.57.8,1.86,2.2" transform="translate(251 572)" fill="#c8c9ca"/>
      <path id="Path_92" data-name="Path 92" d="M50.907,30.16h.9a1.666,1.666,0,0,0-1.023.415c-1.178.985-1.809,3.371-1.383,5.341a3.36,3.36,0,0,0,.819,1.739,1.462,1.462,0,0,0,1.076.478H47.784l-.665-.016h-.785c-.888,0-1.69-.878-1.98-2.217a6.016,6.016,0,0,1-.119-1.831,4.947,4.947,0,0,1,1.57-3.51,1.821,1.821,0,0,1,1.024-.415H48.3Z" transform="translate(251 572)" fill="#3e3a39"/>
    </g>
    <path id="Path_93" data-name="Path 93" d="M41.54,12.54a11.759,11.759,0,0,1,1.717.141c.685-1.264.885-2.016,1.41-1.735.6.321.771,1.348.943,2.313a15.094,15.094,0,0,1,3.037,1.467,5.217,5.217,0,0,0,2.282-4.366A9.341,9.341,0,0,0,49.56,5.19H41.505c.48,3.5-5.8,4.151-10.586,6.088-4.777,1.922-6.32,3.028-6.641,6.1-.127,1.211-.224,2.135-.3,2.857l13.15-6.625A8.987,8.987,0,0,1,41.54,12.54" transform="translate(48 10)" fill="#717071"/>
    <path id="Path_97" data-name="Path 97" d="M51.465,6c0,1.1-2.686,2-6,2s-6-.9-6-2,2.686-2,6-2,6,.9,6,2" transform="translate(47.535 10)" fill="#3e3a39"/>
    <rect id="Rectangle_59" data-name="Rectangle 59" width="12" height="4" transform="translate(87 12)" fill="#3e3a39"/>
    <path id="Path_98" data-name="Path 98" d="M51.465,2c0,1.1-2.686,2-6,2s-6-.9-6-2,2.686-2,6-2,6,.9,6,2" transform="translate(47.535 10)" fill="#ececed"/>
    <rect id="Rectangle_60" data-name="Rectangle 60" width="54.568" height="56.839" transform="translate(48 10)" fill="none"/>
  </g>
</svg>
