<?xml version="1.0" encoding="utf-8"?>
<!-- Generator: Adobe Illustrator 24.1.1, SVG Export Plug-In . SVG Version: 6.00 Build 0)  -->
<svg version="1.1" id="圖層_1" xmlns="http://www.w3.org/2000/svg" xmlns:xlink="http://www.w3.org/1999/xlink" x="0px" y="0px"
	 viewBox="0 0 150 108" style="enable-background:new 0 0 150 108;" xml:space="preserve">
<style type="text/css">
	.st0{fill:#0A0000;}
	.st1{fill:#404040;}
	.st2{fill:none;}
	.st3{fill:url(#SVGID_1_);}
	.st4{fill:url(#SVGID_2_);}
	.st5{fill:url(#SVGID_3_);}
	.st6{fill:url(#SVGID_4_);}
	.st7{fill:url(#SVGID_5_);}
	.st8{fill:url(#SVGID_6_);}
	.st9{fill:url(#SVGID_7_);}
	.st10{fill:url(#SVGID_8_);}
	.st11{fill:url(#SVGID_9_);}
	.st12{fill:url(#SVGID_10_);}
	.st13{fill:url(#SVGID_11_);}
	.st14{fill:url(#SVGID_12_);}
	.st15{fill:url(#SVGID_13_);}
	.st16{fill:url(#SVGID_14_);}
	.st17{fill:url(#SVGID_15_);}
	.st18{fill:url(#SVGID_16_);}
	.st19{fill:#666666;}
	.st20{fill:#B3B3B3;}
	.st21{fill:#231815;}
</style>
<rect class="st0" width="150" height="108"/>
<path id="Path_99" class="st1" d="M104.57,53.15L59,56.53V11l46.12,6.84c0.65,0.1,1.12,0.65,1.13,1.3v32.2
	C106.24,52.28,105.51,53.07,104.57,53.15"/>
<g>
	<polygon class="st2" points="63,20.19 62.99,22.78 63,22.77 	"/>
	<polygon class="st2" points="106.11,27.66 106.11,33.53 106.12,33.54 106.12,27.67 	"/>
	
		<linearGradient id="SVGID_1_" gradientUnits="userSpaceOnUse" x1="208.64" y1="481.9032" x2="209.702" y2="482.4732" gradientTransform="matrix(43.112 0 0 -44.198 -8930.6133 21352.4941)">
		<stop  offset="0" style="stop-color:#711111"/>
		<stop  offset="0.305" style="stop-color:#FF0000"/>
		<stop  offset="0.636" style="stop-color:#FF8A00"/>
		<stop  offset="0.974" style="stop-color:#FFC700"/>
		<stop  offset="1" style="stop-color:#FFCA00"/>
	</linearGradient>
	<polygon class="st3" points="80.01,30.95 89.44,54.26 91.53,54.1 81.1,28.31 	"/>
	
		<linearGradient id="SVGID_2_" gradientUnits="userSpaceOnUse" x1="208.6505" y1="481.8837" x2="209.7125" y2="482.4537" gradientTransform="matrix(43.112 0 0 -44.198 -8930.6133 21352.4941)">
		<stop  offset="0" style="stop-color:#711111"/>
		<stop  offset="0.305" style="stop-color:#FF0000"/>
		<stop  offset="0.636" style="stop-color:#FF8A00"/>
		<stop  offset="0.974" style="stop-color:#FFC700"/>
		<stop  offset="1" style="stop-color:#FFCA00"/>
	</linearGradient>
	<polygon class="st4" points="77.74,36.43 85.18,54.57 87.28,54.42 78.82,33.8 	"/>
	
		<linearGradient id="SVGID_3_" gradientUnits="userSpaceOnUse" x1="208.6882" y1="481.8134" x2="209.7502" y2="482.3835" gradientTransform="matrix(43.112 0 0 -44.198 -8930.6133 21352.4941)">
		<stop  offset="0" style="stop-color:#711111"/>
		<stop  offset="0.305" style="stop-color:#FF0000"/>
		<stop  offset="0.636" style="stop-color:#FF8A00"/>
		<stop  offset="0.974" style="stop-color:#FFC700"/>
		<stop  offset="1" style="stop-color:#FFCA00"/>
	</linearGradient>
	<polygon class="st5" points="76.81,55.2 78.88,50.02 77.79,47.37 74.59,55.36 	"/>
	
		<linearGradient id="SVGID_4_" gradientUnits="userSpaceOnUse" x1="208.7319" y1="481.7321" x2="209.7939" y2="482.3021" gradientTransform="matrix(43.112 0 0 -44.198 -8930.6133 21352.4941)">
		<stop  offset="0" style="stop-color:#711111"/>
		<stop  offset="0.305" style="stop-color:#FF0000"/>
		<stop  offset="0.636" style="stop-color:#FF8A00"/>
		<stop  offset="0.974" style="stop-color:#FFC700"/>
		<stop  offset="1" style="stop-color:#FFCA00"/>
	</linearGradient>
	<polygon class="st6" points="80.87,54.89 80.24,53.35 79.6,54.99 	"/>
	
		<linearGradient id="SVGID_5_" gradientUnits="userSpaceOnUse" x1="208.5045" y1="482.1556" x2="209.5665" y2="482.7256" gradientTransform="matrix(43.112 0 0 -44.198 -8930.6133 21352.4941)">
		<stop  offset="0" style="stop-color:#711111"/>
		<stop  offset="0.305" style="stop-color:#FF0000"/>
		<stop  offset="0.636" style="stop-color:#FF8A00"/>
		<stop  offset="0.974" style="stop-color:#FFC700"/>
		<stop  offset="1" style="stop-color:#FFCA00"/>
	</linearGradient>
	<polygon class="st7" points="89.13,24.58 90.19,27.27 92.16,22.43 90.1,22.19 	"/>
	
		<linearGradient id="SVGID_6_" gradientUnits="userSpaceOnUse" x1="208.5551" y1="482.0613" x2="209.6171" y2="482.6313" gradientTransform="matrix(43.112 0 0 -44.198 -8930.6133 21352.4941)">
		<stop  offset="0" style="stop-color:#711111"/>
		<stop  offset="0.305" style="stop-color:#FF0000"/>
		<stop  offset="0.636" style="stop-color:#FF8A00"/>
		<stop  offset="0.974" style="stop-color:#FFC700"/>
		<stop  offset="1" style="stop-color:#FFCA00"/>
	</linearGradient>
	<polygon class="st8" points="91.58,30.81 92.65,33.52 96.87,22.98 94.81,22.73 	"/>
	
		<linearGradient id="SVGID_7_" gradientUnits="userSpaceOnUse" x1="208.6081" y1="481.9626" x2="209.6701" y2="482.5326" gradientTransform="matrix(43.112 0 0 -44.198 -8930.6133 21352.4941)">
		<stop  offset="0" style="stop-color:#711111"/>
		<stop  offset="0.305" style="stop-color:#FF0000"/>
		<stop  offset="0.636" style="stop-color:#FF8A00"/>
		<stop  offset="0.974" style="stop-color:#FFC700"/>
		<stop  offset="1" style="stop-color:#FFCA00"/>
	</linearGradient>
	<polygon class="st9" points="100.28,26.67 99.2,23.94 94.05,37.04 95.12,39.77 	"/>
	
		<linearGradient id="SVGID_8_" gradientUnits="userSpaceOnUse" x1="208.6286" y1="481.9245" x2="209.6906" y2="482.4945" gradientTransform="matrix(43.112 0 0 -44.198 -8930.6133 21352.4941)">
		<stop  offset="0" style="stop-color:#711111"/>
		<stop  offset="0.305" style="stop-color:#FF0000"/>
		<stop  offset="0.636" style="stop-color:#FF8A00"/>
		<stop  offset="0.974" style="stop-color:#FFC700"/>
		<stop  offset="1" style="stop-color:#FFCA00"/>
	</linearGradient>
	<polygon class="st10" points="82.38,25.2 93.72,53.94 95.81,53.79 83.48,22.54 	"/>
	
		<linearGradient id="SVGID_9_" gradientUnits="userSpaceOnUse" x1="208.3725" y1="482.4017" x2="209.4345" y2="482.9716" gradientTransform="matrix(43.112 0 0 -44.198 -8930.6133 21352.4941)">
		<stop  offset="0" style="stop-color:#711111"/>
		<stop  offset="0.305" style="stop-color:#FF0000"/>
		<stop  offset="0.636" style="stop-color:#FF8A00"/>
		<stop  offset="0.974" style="stop-color:#FFC700"/>
		<stop  offset="1" style="stop-color:#FFCA00"/>
	</linearGradient>
	<polygon class="st11" points="70.58,12.74 63.01,29.61 63.06,34.38 72.63,13.04 	"/>
	
		<linearGradient id="SVGID_10_" gradientUnits="userSpaceOnUse" x1="208.3017" y1="482.5335" x2="209.3637" y2="483.1035" gradientTransform="matrix(43.112 0 0 -44.198 -8930.6133 21352.4941)">
		<stop  offset="0" style="stop-color:#711111"/>
		<stop  offset="0.305" style="stop-color:#FF0000"/>
		<stop  offset="0.636" style="stop-color:#FF8A00"/>
		<stop  offset="0.974" style="stop-color:#FFC700"/>
		<stop  offset="1" style="stop-color:#FFCA00"/>
	</linearGradient>
	<polygon class="st12" points="67.82,12.33 65.76,12.03 63.01,17.98 63,20.19 63,22.77 	"/>
	
		<linearGradient id="SVGID_11_" gradientUnits="userSpaceOnUse" x1="208.5314" y1="482.1056" x2="209.5934" y2="482.6756" gradientTransform="matrix(43.112 0 0 -44.198 -8930.6133 21352.4941)">
		<stop  offset="0" style="stop-color:#711111"/>
		<stop  offset="0.305" style="stop-color:#FF0000"/>
		<stop  offset="0.636" style="stop-color:#FF8A00"/>
		<stop  offset="0.974" style="stop-color:#FFC700"/>
		<stop  offset="1" style="stop-color:#FFCA00"/>
	</linearGradient>
	<polygon class="st13" points="79.01,20.9 76.94,20.66 63,53.44 63,56.22 64.03,56.14 	"/>
	
		<linearGradient id="SVGID_12_" gradientUnits="userSpaceOnUse" x1="208.6144" y1="481.9509" x2="209.6764" y2="482.5209" gradientTransform="matrix(43.112 0 0 -44.198 -8930.6133 21352.4941)">
		<stop  offset="0" style="stop-color:#711111"/>
		<stop  offset="0.305" style="stop-color:#FF0000"/>
		<stop  offset="0.636" style="stop-color:#FF8A00"/>
		<stop  offset="0.974" style="stop-color:#FFC700"/>
		<stop  offset="1" style="stop-color:#FFCA00"/>
	</linearGradient>
	<polygon class="st14" points="104.75,23.9 102.53,23.64 106.11,33.53 106.11,27.66 	"/>
	
		<linearGradient id="SVGID_13_" gradientUnits="userSpaceOnUse" x1="208.6768" y1="481.8346" x2="209.7388" y2="482.4046" gradientTransform="matrix(43.112 0 0 -44.198 -8930.6133 21352.4941)">
		<stop  offset="0" style="stop-color:#711111"/>
		<stop  offset="0.305" style="stop-color:#FF0000"/>
		<stop  offset="0.636" style="stop-color:#FF8A00"/>
		<stop  offset="0.974" style="stop-color:#FFC700"/>
		<stop  offset="1" style="stop-color:#FFCA00"/>
	</linearGradient>
	<polygon class="st15" points="96.48,43.21 97.58,46 102.57,32.48 101.47,29.7 	"/>
	
		<linearGradient id="SVGID_14_" gradientUnits="userSpaceOnUse" x1="208.7489" y1="481.7003" x2="209.8109" y2="482.2703" gradientTransform="matrix(43.112 0 0 -44.198 -8930.6133 21352.4941)">
		<stop  offset="0" style="stop-color:#711111"/>
		<stop  offset="0.305" style="stop-color:#FF0000"/>
		<stop  offset="0.636" style="stop-color:#FF8A00"/>
		<stop  offset="0.974" style="stop-color:#FFC700"/>
		<stop  offset="1" style="stop-color:#FFCA00"/>
	</linearGradient>
	<polygon class="st16" points="98.95,49.48 100.05,52.27 105.05,38.78 103.95,35.99 	"/>
	
		<linearGradient id="SVGID_15_" gradientUnits="userSpaceOnUse" x1="208.6453" y1="481.8933" x2="209.7073" y2="482.4633" gradientTransform="matrix(43.112 0 0 -44.198 -8930.6133 21352.4941)">
		<stop  offset="0" style="stop-color:#711111"/>
		<stop  offset="0.305" style="stop-color:#FF0000"/>
		<stop  offset="0.636" style="stop-color:#FF8A00"/>
		<stop  offset="0.974" style="stop-color:#FFC700"/>
		<stop  offset="1" style="stop-color:#FFCA00"/>
	</linearGradient>
	<polygon class="st17" points="69.76,55.72 71.99,55.55 76.59,44.44 75.51,41.81 	"/>
	
		<linearGradient id="SVGID_16_" gradientUnits="userSpaceOnUse" x1="208.4694" y1="482.2211" x2="209.5314" y2="482.7911" gradientTransform="matrix(43.112 0 0 -44.198 -8930.6133 21352.4941)">
		<stop  offset="0" style="stop-color:#711111"/>
		<stop  offset="0.305" style="stop-color:#FF0000"/>
		<stop  offset="0.636" style="stop-color:#FF8A00"/>
		<stop  offset="0.974" style="stop-color:#FFC700"/>
		<stop  offset="1" style="stop-color:#FFCA00"/>
	</linearGradient>
	<polygon class="st18" points="63.01,46.55 74.52,20.37 72.44,20.13 63.01,41.59 	"/>
</g>
<rect class="st2" width="150" height="108"/>
<path id="Path_101" class="st19" d="M47,15l-5.67-0.91c-0.23-0.05-0.37-0.27-0.32-0.5c0.03-0.12,0.1-0.22,0.2-0.28l6.07-3.98
	c0.55-0.3,1.18-0.4,1.8-0.3l5.92,1L47,15z"/>
<rect id="Rectangle_61" x="41.33" y="8.1" class="st2" width="67.03" height="57.94"/>
<path id="Path_100" class="st20" d="M49,16.21v39.91L50.38,61v2.03c0.01,0.25,0.17,0.47,0.4,0.56l3.09,1.34
	c0.36,0.18,0.79,0.04,0.97-0.32c0.04-0.08,0.06-0.16,0.07-0.24v-1.4L57,59.59V11L49,16.21z"/>
<path id="Path_103" class="st21" d="M55,25.61V17l-4,2.18V27L55,25.61z"/>
<path id="Path_104" class="st21" d="M51,42.82L55,43v-9l-4,0.65V42.82z"/>
<path id="Path_105" class="st21" d="M51,53.67L55,55v-8.45L51,46V53.67z"/>
<path id="Path_106" class="st1" d="M106.11,26.19l-35.39-3.42l3.79-9.47l30.6,4.54L106.11,26.19z"/>
<rect id="Rectangle_63" x="41.33" y="8.1" class="st2" width="67.03" height="57.94"/>
</svg>
