<svg xmlns="http://www.w3.org/2000/svg" width="24" height="24" viewBox="0 0 24 24">
  <g id="component_btn_refresh_block_nc_m" transform="translate(-1579 -402)">
    <g id="component_btn_point_block_b_n" transform="translate(0 34)">
      <rect id="Rectangle_1130" data-name="Rectangle 1130" width="24" height="24" rx="3" transform="translate(1579 368)" fill="none"/>
    </g>
    <path id="Union_84" data-name="Union 84" d="M2546.13,11335.461l4-1-.56,1.4a4.481,4.481,0,0,0,2.646-.864,4.356,4.356,0,0,0,1.474-5.19.732.732,0,0,1,.407-.956.762.762,0,0,1,.39-.046.751.751,0,0,1,.58.452,5.807,5.807,0,0,1-1.966,6.924,5.963,5.963,0,0,1-4.107,1.12l-.865,2.161Zm-1.5-1.363a.743.743,0,0,1-.581-.449,5.8,5.8,0,0,1,1.964-6.924,5.971,5.971,0,0,1,4.257-1.105l.863-2.156,1.873,3.885-3.873,1.115.567-1.416a4.481,4.481,0,0,0-2.8.858,4.356,4.356,0,0,0-1.474,5.193.727.727,0,0,1-.407.954.754.754,0,0,1-.278.054A.712.712,0,0,1,2544.628,11334.1Z" transform="translate(-958.605 -10917.463)" fill="#a1a1a1"/>
  </g>
</svg>
