<svg xmlns="http://www.w3.org/2000/svg" width="24" height="24" viewBox="0 0 24 24"><defs><style>.a{fill:#141414;}.b{fill:#ffad32;}.c{fill:none;}.d,.e{stroke:none;}.e{fill:#ffad32;}</style></defs><g transform="translate(-1327 -260)"><g class="a" transform="translate(1332 265)"><path class="d" d="M 12.00004482269287 13.50004291534424 L 2.000004768371582 13.50004291534424 C 1.172904849052429 13.50004291534424 0.500004768371582 12.8271427154541 0.500004768371582 12.00004291534424 L 0.500004768371582 2.000002861022949 C 0.500004768371582 1.172902941703796 1.172904849052429 0.5000028610229492 2.000004768371582 0.5000028610229492 L 12.00004482269287 0.5000028610229492 C 12.82715511322021 0.5000028610229492 13.50005435943604 1.172902941703796 13.50005435943604 2.000002861022949 L 13.50005435943604 12.00004291534424 C 13.50005435943604 12.8271427154541 12.82715511322021 13.50004291534424 12.00004482269287 13.50004291534424 Z"/><path class="e" d="M 2.000004768371582 1.000002861022949 C 1.44859504699707 1.000002861022949 0.999995231628418 1.448602676391602 0.999995231628418 2.000002861022949 L 0.999995231628418 12.00004291534424 C 0.999995231628418 12.55144309997559 1.44859504699707 13.00004291534424 2.000004768371582 13.00004291534424 L 12.00004482269287 13.00004291534424 C 12.55144500732422 13.00004291534424 13.00004482269287 12.55144309997559 13.00004482269287 12.00004291534424 L 13.00004482269287 2.000002861022949 C 13.00004482269287 1.448602676391602 12.55144500732422 1.000002861022949 12.00004482269287 1.000002861022949 L 2.000004768371582 1.000002861022949 M 2.000004768371582 2.86102294921875e-06 L 12.00004482269287 2.86102294921875e-06 C 13.10461521148682 2.86102294921875e-06 14.00004482269287 0.8954324722290039 14.00004482269287 2.000002861022949 L 14.00004482269287 12.00004291534424 C 14.00004482269287 13.10461330413818 13.10461521148682 14.00004291534424 12.00004482269287 14.00004291534424 L 2.000004768371582 14.00004291534424 C 0.8954343795776367 14.00004291534424 -4.76837158203125e-06 13.10461330413818 -4.76837158203125e-06 12.00004291534424 L -4.76837158203125e-06 2.000002861022949 C -4.76837158203125e-06 0.8954324722290039 0.8954343795776367 2.86102294921875e-06 2.000004768371582 2.86102294921875e-06 Z"/></g><path class="b" d="M0,3,1,2,3,4,7,0,8,1,3,6Z" transform="translate(1335.001 269)"/><rect class="c" width="24" height="24" transform="translate(1327 260)"/></g></svg>